<svg width="25" height="25" viewBox="0 0 25 25" fill="none" xmlns="http://www.w3.org/2000/svg">
<path d="M20.5195 20.2735V9.40549L12.5195 4.60549L4.51953 9.40549V20.2735H8.51953V17.5235C8.51953 16.4626 8.94096 15.4452 9.6911 14.6951C10.4412 13.9449 11.4587 13.5235 12.5195 13.5235C13.5804 13.5235 14.5978 13.9449 15.348 14.6951C16.0981 15.4452 16.5195 16.4626 16.5195 17.5235V20.2735H20.5195ZM14.5195 22.2735V17.5235C14.5195 16.9931 14.3088 16.4843 13.9337 16.1093C13.5587 15.7342 13.05 15.5235 12.5195 15.5235C11.9891 15.5235 11.4804 15.7342 11.1053 16.1093C10.7302 16.4843 10.5195 16.9931 10.5195 17.5235V22.2735H4.51953C3.9891 22.2735 3.48039 22.0628 3.10532 21.6877C2.73024 21.3126 2.51953 20.8039 2.51953 20.2735V9.40549C2.51953 9.06012 2.60896 8.72063 2.77912 8.42008C2.94929 8.11954 3.19438 7.86818 3.49053 7.69049L11.4905 2.89049C11.8014 2.70399 12.157 2.60547 12.5195 2.60547C12.882 2.60547 13.2377 2.70399 13.5485 2.89049L21.5485 7.69049C21.8447 7.86818 22.0898 8.11954 22.2599 8.42008C22.4301 8.72063 22.5195 9.06012 22.5195 9.40549V20.2735C22.5195 20.8039 22.3088 21.3126 21.9337 21.6877C21.5587 22.0628 21.05 22.2735 20.5195 22.2735H14.5195Z" fill="#0A070B"/>
</svg>
