<svg width="32" height="33" viewBox="0 0 32 33" fill="none" xmlns="http://www.w3.org/2000/svg">
<path d="M15.9342 11.2932C13.1366 11.284 10.8464 13.6567 10.8376 16.5734C10.8289 19.49 13.1048 21.8777 15.9024 21.8869C18.6999 21.8961 20.9901 19.5234 20.9989 16.6068C21.0077 13.6901 18.7318 11.3024 15.9342 11.2932ZM31.1564 16.6401C31.163 14.4467 31.1886 12.2732 31.077 10.0833C30.9665 7.5398 30.4168 5.28095 28.6386 3.41543C26.8567 1.54592 24.6973 0.962645 22.2584 0.83145C20.1548 0.701356 18.0699 0.714376 15.9698 0.707478C13.8659 0.700567 11.7811 0.67385 9.68063 0.790134C7.24094 0.905304 5.0743 1.47834 3.28497 3.33214C1.4918 5.18991 0.932375 7.44114 0.806579 9.98388C0.681834 12.1769 0.694359 14.3506 0.68778 16.54C0.681201 18.7295 0.655601 20.907 0.767177 23.0969C0.877689 25.6404 1.42738 27.8992 3.20554 29.7647C4.9875 31.6343 7.14685 32.2175 9.5858 32.3487C11.6893 32.4788 13.7743 32.4658 15.8744 32.4727C17.9783 32.4796 20.0631 32.5063 22.1635 32.39C24.6032 32.2749 26.7699 31.7018 28.5592 29.848C30.3524 27.9903 30.9118 25.739 31.0376 23.1963C31.1661 21.0072 31.1498 18.8336 31.1564 16.6401ZM15.8938 24.74C11.5678 24.7258 8.08747 21.0745 8.10102 16.5644C8.11457 12.0543 11.6168 8.42594 15.9428 8.44015C20.2687 8.45436 23.7491 12.1057 23.7355 16.6158C23.722 21.1258 20.2198 24.7542 15.8938 24.74ZM24.0755 10.0365C23.0654 10.0332 22.2523 9.18011 22.2555 8.1271C22.2587 7.07409 23.0769 6.22641 24.0869 6.22973C25.0969 6.23305 25.91 7.08608 25.9069 8.1391C25.9064 8.38914 25.8586 8.63663 25.7663 8.8674C25.674 9.09817 25.5389 9.30768 25.3687 9.48393C25.1986 9.66018 24.9968 9.7997 24.7749 9.89452C24.553 9.98933 24.3153 10.0376 24.0755 10.0365Z" fill="#FFFEEE"/>
</svg>
