<svg width="308" height="77" viewBox="0 0 308 77" fill="none" xmlns="http://www.w3.org/2000/svg">
<path d="M21.7366 37.9504V37.9024C22.7796 37.526 23.6094 36.9253 24.2178 36.1085C24.8342 35.2916 25.1423 34.3065 25.1423 33.1533C25.1423 32.0401 24.85 31.055 24.2652 30.1981C23.6726 29.3412 22.8824 28.6845 21.8946 28.22C20.899 27.7635 19.7927 27.5312 18.5916 27.5312H10.5V48.3216H18.5916C19.7927 48.3216 20.899 48.0893 21.8946 47.6329C22.8824 47.1684 23.6726 46.5117 24.2652 45.6547C24.85 44.7978 25.1423 43.8127 25.1423 42.6996C25.1423 41.5463 24.8342 40.5613 24.2178 39.7444C23.6094 38.9275 22.7796 38.3269 21.7366 37.9504ZM14.2692 31.007H18.4494C19.3581 31.007 20.0693 31.2472 20.5829 31.7278C21.0965 32.2083 21.3494 32.8329 21.3494 33.6098C21.3494 34.3786 21.0886 35.0113 20.5671 35.4998C20.0456 35.9883 19.3028 36.2366 18.3387 36.2366H14.2692V31.007ZM20.5829 44.1251C20.0693 44.6056 19.3581 44.8459 18.4494 44.8459H14.2692V39.6162H18.3387C19.3028 39.6162 20.0456 39.8645 20.5671 40.353C21.0886 40.8416 21.3494 41.4742 21.3494 42.2431C21.3494 43.0199 21.0965 43.6446 20.5829 44.1251Z" fill="white"/>
<path d="M26.918 28.0977H33.6662C35.7445 28.0977 37.5619 28.5221 39.1028 29.371C40.6437 30.2199 41.8369 31.4052 42.6745 32.9349C43.5121 34.4645 43.9309 36.2184 43.9309 38.2205C43.9309 40.2147 43.5121 41.9766 42.6745 43.5062C41.8369 45.0359 40.6516 46.2211 39.1028 47.0701C37.5619 47.919 35.7445 48.3434 33.6662 48.3434H26.918V28.0977ZM33.5003 44.7075C35.6575 44.7075 37.3011 44.1309 38.4311 42.9696C39.5611 41.8084 40.13 40.2227 40.13 38.2125C40.13 36.1944 39.5611 34.6087 38.4311 33.4554C37.2932 32.2942 35.6496 31.7175 33.5003 31.7175H30.6872V44.7155H33.5003V44.7075Z" fill="white"/>
<path fill-rule="evenodd" clip-rule="evenodd" d="M11.4056 4.14649L11.4205 4.15657L11.5532 4.23348L11.5551 4.23453L62.4747 34.0111L62.5506 34.0623L62.6389 34.1007C64.4071 35.0012 64.6994 36.9036 64.6994 38.0706C64.6994 40.3307 63.0898 41.8264 62.0125 42.5716L11.5466 72.3205L11.5432 72.3224L11.472 72.3636L11.4066 72.4078C10.6617 72.9111 9.58994 73.1497 8.94755 73.1497C8.29813 73.1497 7.23713 72.9121 6.49211 72.4103L6.48846 72.4078L6.35586 72.3147L6.20391 72.2377C4.80663 71.5334 3.73985 69.6885 3.73985 67.8564V8.69C3.73985 6.38133 5.41717 4.874 6.48832 4.14728C7.21224 3.66098 8.05868 3.40527 8.94755 3.40527C9.83812 3.40527 10.6922 3.66189 11.4056 4.14649ZM67.843 38.0706C67.843 35.1587 66.606 32.5742 64.0522 31.2776L13.1351 1.51613C11.8783 0.671084 10.4159 0.25 8.94755 0.25C7.48218 0.25 6.01462 0.674258 4.75509 1.52517C2.29489 3.18157 0.613281 5.71074 0.613281 8.69V67.8564C0.613281 70.7865 2.25236 73.7461 4.7811 75.0387C6.04314 75.8817 7.69391 76.2964 8.95605 76.2964C10.2238 76.2964 11.8728 75.8782 13.1436 75.0302L63.6888 45.2438L63.7016 45.2352C66.152 43.5795 67.843 41.0507 67.843 38.0706Z" fill="url(#paint0_linear)"/>
<path fill-rule="evenodd" clip-rule="evenodd" d="M85.7281 37.3825C83.9124 35.9582 82.7253 34.3569 82.1754 32.5698C81.6254 30.7828 81.6167 29.1019 82.1492 27.5271C82.6816 25.9524 83.7204 24.6165 85.2742 23.5283C86.8279 22.4313 88.8007 21.8828 91.1837 21.8828H111.025C112.841 21.8828 114.316 23.3779 114.316 25.2181V25.2269C114.316 27.0671 112.841 28.5622 111.025 28.5622H91.1837C90.5378 28.5622 89.9704 28.6507 89.4816 28.8188C88.984 28.9957 88.6436 29.2346 88.4603 29.5353C88.2682 29.845 88.2595 30.2077 88.4341 30.6324C88.5999 31.057 89.0102 31.517 89.6562 32.0125L105.342 44.053C107.158 45.4332 108.397 47.0079 109.061 48.7773C109.724 50.5466 109.838 52.201 109.401 53.7581C108.965 55.3151 108.013 56.6156 106.529 57.6772C105.054 58.73 103.099 59.2608 100.672 59.2608H80.1502C78.3346 59.2608 76.8594 57.7657 76.8594 55.9255V55.9167C76.8594 54.0765 78.3346 52.5814 80.1502 52.5814H100.672C102.147 52.5814 102.968 52.3072 103.116 51.7498C103.265 51.1925 102.715 50.4582 101.467 49.5293L85.7281 37.3825ZM114.876 30.6136C115.636 28.8708 116.657 27.3491 117.949 26.0663C119.241 24.7835 120.751 23.7662 122.497 23.0142C124.242 22.2622 126.11 21.8906 128.127 21.8906H141.255C143.071 21.8906 144.546 23.3857 144.546 25.2259V25.2347C144.546 27.0749 143.071 28.57 141.255 28.57H128.118C127.018 28.57 126.006 28.7735 125.08 29.1804C124.155 29.5874 123.326 30.1271 122.61 30.7994C121.894 31.4718 121.336 32.2768 120.934 33.1969C120.533 34.117 120.341 35.099 120.341 36.1429V49.077C120.341 50.0413 120.698 50.8641 121.423 51.563C122.139 52.2531 123.012 52.6069 124.033 52.6069H141.255C143.071 52.6069 144.546 54.102 144.546 55.9422V55.951C144.546 57.7912 143.071 59.2863 141.255 59.2863H124.033C122.593 59.2863 121.248 59.0209 120 58.4812C118.752 57.9416 117.661 57.2161 116.735 56.2961C115.81 55.376 115.077 54.2878 114.544 53.0404C114.012 51.793 113.75 50.4748 113.75 49.0947V36.1695C113.741 34.2143 114.117 32.3653 114.876 30.6136ZM151.847 26.0044C150.573 27.3314 149.587 28.915 148.888 30.7552C148.19 32.6042 147.841 34.6389 147.832 36.8595V55.9245C147.832 57.7646 149.307 59.2598 151.123 59.2598H151.132C152.947 59.2598 154.422 57.7646 154.422 55.9245V36.8595C154.422 34.4001 155.156 32.4095 156.613 30.8702C158.071 29.3397 160 28.57 162.383 28.57H168.581C170.397 28.57 171.872 27.0749 171.872 25.2347V25.2259C171.872 23.3857 170.397 21.8906 168.581 21.8906H162.383C160.227 21.8906 158.246 22.2445 156.448 22.9522C154.649 23.66 153.113 24.6774 151.847 26.0044ZM180.787 51.2622C182.079 52.1469 183.511 52.5892 185.108 52.5892H199.319C201.135 52.5892 202.61 54.0844 202.61 55.9245V55.9333C202.61 57.7735 201.135 59.2686 199.319 59.2686H185.108C183.179 59.2686 181.355 58.8882 179.653 58.1185C177.95 57.3488 176.449 56.3226 175.166 55.0398C173.874 53.757 172.861 52.2442 172.128 50.5191C171.386 48.7939 171.02 46.9449 171.02 44.9898V36.2933C171.02 34.3382 171.386 32.4803 172.128 30.7375C172.87 28.9947 173.883 27.4641 175.166 26.1548C176.449 24.8543 177.95 23.8104 179.653 23.0407C181.355 22.271 183.179 21.8906 185.108 21.8906H193.802C196.072 21.8906 197.931 22.4214 199.371 23.4742C200.812 24.527 201.755 25.8363 202.208 27.3934C202.662 28.9504 202.584 30.5959 201.981 32.3476C201.379 34.0993 200.201 35.6829 198.455 37.0984L180.787 51.2622ZM177.61 45.2109L194.431 31.9053C194.885 31.5602 195.243 31.1887 195.513 30.7817C195.775 30.3748 195.897 30.012 195.88 29.6847C195.862 29.3574 195.688 29.092 195.365 28.8796C195.042 28.6673 194.518 28.5612 193.802 28.5612H185.108C184.087 28.5612 183.118 28.7646 182.21 29.1627C181.302 29.5697 180.508 30.1094 179.827 30.8083C179.146 31.4983 178.605 32.3122 178.204 33.2588C177.802 34.1966 177.61 35.2051 177.61 36.2845V45.2109ZM219.323 52.5892C217.726 52.5892 216.285 52.1469 215.002 51.2622L232.67 37.0984C234.416 35.6829 235.594 34.0904 236.196 32.3476C236.799 30.5959 236.877 28.9504 236.423 27.3934C235.969 25.8363 235.027 24.527 233.586 23.4742C232.146 22.4214 230.287 21.8906 228.017 21.8906H219.323C217.394 21.8906 215.57 22.271 213.867 23.0407C212.165 23.8104 210.673 24.8543 209.381 26.1548C208.098 27.4641 207.085 28.9947 206.343 30.7375C205.601 32.4803 205.234 34.3382 205.234 36.2933V44.9898C205.234 46.9449 205.601 48.7939 206.343 50.5191C207.076 52.2442 208.089 53.757 209.381 55.0398C210.664 56.3226 212.165 57.3488 213.867 58.1185C215.57 58.8882 217.394 59.2686 219.323 59.2686H233.534C235.35 59.2686 236.825 57.7735 236.825 55.9333V55.9245C236.825 54.0844 235.35 52.5892 233.534 52.5892H219.323ZM228.646 31.9053L211.825 45.2109V36.2845C211.825 35.2051 212.017 34.1966 212.418 33.2588C212.82 32.3122 213.361 31.4983 214.042 30.8083C214.723 30.1094 215.517 29.5697 216.425 29.1627C217.333 28.7646 218.302 28.5612 219.323 28.5612H228.017C228.733 28.5612 229.257 28.6673 229.58 28.8796C229.903 29.092 230.077 29.3574 230.095 29.6847C230.112 30.012 229.99 30.3748 229.728 30.7817C229.457 31.1887 229.1 31.5602 228.646 31.9053ZM256.993 21.8906C259.192 21.8906 261.174 22.2445 262.963 22.9522C264.744 23.66 266.272 24.6774 267.537 26.0044C268.803 27.3314 269.789 28.915 270.496 30.7552C271.195 32.5953 271.544 34.6301 271.544 36.8595V52.5814H294.25C295.726 52.5814 296.546 52.3072 296.694 51.7498C296.843 51.1925 296.293 50.4582 295.045 49.5293L279.298 37.3825C277.482 35.9582 276.295 34.3569 275.745 32.5698C275.195 30.7828 275.186 29.1019 275.719 27.5271C276.251 25.9524 277.29 24.6165 278.844 23.5283C280.397 22.4313 282.37 21.8828 284.753 21.8828H304.594C306.41 21.8828 307.885 23.3779 307.885 25.2181V25.2269C307.885 27.0671 306.41 28.5622 304.594 28.5622H284.753C284.107 28.5622 283.54 28.6507 283.051 28.8188C282.562 28.9957 282.222 29.2346 282.03 29.5353C281.838 29.845 281.829 30.2077 282.003 30.6324C282.169 31.057 282.58 31.517 283.226 32.0125L298.912 44.053C300.727 45.4332 301.967 47.0079 302.63 48.7773C303.294 50.5466 303.407 52.201 302.971 53.7581C302.534 55.3151 301.574 56.6156 300.099 57.6772C298.624 58.73 296.668 59.2608 294.25 59.2608H270.438V59.2598H264.953V36.8595C264.953 34.4001 264.22 32.4095 262.762 30.8702C261.305 29.3397 259.384 28.57 256.993 28.57H250.341C248.901 28.57 247.818 28.9947 247.103 29.8351C246.387 30.6756 246.02 31.8699 246.02 33.4092V55.9333C246.02 57.7735 244.545 59.2686 242.729 59.2686H242.721C240.905 59.2686 239.43 57.7735 239.43 55.9333V33.4092C239.43 31.7991 239.683 30.2863 240.198 28.8885C240.713 27.4907 241.437 26.2698 242.389 25.2347C243.332 24.1997 244.484 23.3857 245.828 22.7842C247.172 22.1914 248.682 21.8906 250.35 21.8906H256.993Z" fill="url(#paint1_linear)"/>
<defs>
<linearGradient id="paint0_linear" x1="0.613282" y1="38.2731" x2="67.843" y2="38.2731" gradientUnits="userSpaceOnUse">
<stop stop-color="#F41B3B"/>
<stop offset="1" stop-color="#1884F7"/>
</linearGradient>
<linearGradient id="paint1_linear" x1="76.8594" y1="40.5845" x2="307.885" y2="40.5845" gradientUnits="userSpaceOnUse">
<stop stop-color="#F41B3B"/>
<stop offset="1" stop-color="#1884F7"/>
</linearGradient>
</defs>
</svg>
